<svg xmlns="http://www.w3.org/2000/svg" viewBox="0 0 129.78 58.97"><g><path fill="var(--kidden-primary-color, #F9B001)" d="M24.39,58.97c-3.89,0-7.49-1.26-10.14-3.56-3.39-2.93-4.92-7.51-4.2-11.61-2.25-.72-4.37-2.05-6.09-3.87C1.3,37.12-.14,33.45,.01,29.87c.26-6.36,5.52-12.03,11.75-13.18,.35-5.34,4.11-10.41,9.33-11.94,1.09-.32,2.23-.48,3.4-.48,3.39,0,6.65,1.33,9.08,3.52,2.23-3.25,5.93-5.47,9.97-5.61,.13,0,.27,0,.4,0,2.4,0,4.8,.76,6.87,2.13,2.11-1.71,4.68-2.74,7.33-2.88,.21-.01,.43-.02,.64-.02,3.57,0,7.02,1.59,9.45,4.14,1.6-2.12,3.71-3.78,6.13-4.71,1.45-.56,2.99-.84,4.57-.84,3.23,0,6.32,1.22,8.48,3.34,.76,.75,1.4,1.61,1.9,2.55,2.59-2.03,5.81-3.23,9.03-3.23,.59,0,1.19,.04,1.77,.12,6.39,.87,11.57,6.48,12.39,12.77,5.82,.27,10.91,2.55,14.08,6.35,2.35,2.82,3.52,6.75,3.12,10.51-.35,3.3-1.86,6.15-4.25,8.03-2.21,1.74-4.98,2.61-8.23,2.61h-.03c.73,2.11,.88,4.42,.27,6.59-1.31,4.71-6.03,8.25-10.98,8.25-.46,0-.91-.03-1.36-.09-3.03-.4-5.76-2.17-7.56-4.61-2.56,2.64-6.17,4.31-9.93,4.31-.66,0-1.32-.05-1.96-.16-3.72-.6-7-2.95-9.06-6.08-2.36,2.87-5.69,4.8-9.29,5.11-.3,.03-.6,.04-.9,.04-3.37,0-6.79-1.59-9.13-4.25-.23-.26-.45-.53-.66-.81-.6,.87-1.27,1.71-2.03,2.49-2.58,2.66-5.9,4.18-9.12,4.18-.49,0-.99-.04-1.48-.11-2.68-.39-4.96-1.94-6.34-4.01-2.8,2.18-5.7,3.67-8.65,4.45-1.51,.4-3.06,.6-4.62,.6Z"></path></g></svg>