<svg class="top-shape" viewBox="0 0 356.07 215" xmlns="http://www.w3.org/2000/svg"><g data-name="Layer 2"><g data-name="Layer 1"><path class="cls-1" transform="translate(-.73 -.97)" d="M.73,207V1h354c.11,1.32.12,2.66.34,4,2.5,14.71-1.86,27.2-13.13,36.72a98.23,98.23,0,0,1-19.19,12.4c-17.07,8.58-35.57,12.86-54.1,17C245,76.24,221,80.43,197.75,87.3,153.08,100.52,120,127.68,102.45,172a165.75,165.75,0,0,1-10.53,20.92c-6.87,12-17.26,19.57-31.11,20.8a130.72,130.72,0,0,1-27.33-.48C22.47,211.91,11.64,209.13.73,207Z" fill="#4154f1"></path><path class="cls-2" transform="translate(-.73 -.97)" d="M.73,207c10.91,2.16,21.74,4.94,32.75,6.29a130.72,130.72,0,0,0,27.33.48c13.85-1.23,24.24-8.79,31.11-20.8A165.75,165.75,0,0,0,102.45,172c17.52-44.34,50.63-71.5,95.3-84.72C221,80.43,245,76.24,268.65,71c18.53-4.1,37-8.38,54.1-17a98.23,98.23,0,0,0,19.19-12.4c11.27-9.52,15.63-22,13.13-36.72-.22-1.3-.23-2.64-.34-4,.67.33,1.79.55,1.91,1a13.89,13.89,0,0,1,.09,3.48V216H.73Z" fill="transparent"></path></g></g></svg>